<svg width="693" height="693" viewBox="0 0 693 693" fill="none" xmlns="http://www.w3.org/2000/svg">
<path d="M332.694 46.8858C329.446 49.647 327.93 50.3508 324.952 50.3508C323.111 50.3508 320.892 50.8381 318.726 51.7584C314.178 53.6534 310.497 54.6279 309.684 54.1406C308.223 53.2203 300.535 56.3604 298.315 58.7426C297.557 59.5547 295.662 61.1789 294.146 62.3159C292.522 63.507 291.168 65.0229 290.952 65.7809C290.789 66.5388 290.898 68.7586 291.277 70.816C291.656 72.8192 292.251 76.2842 292.684 78.5039C293.605 83.7014 293.659 88.5741 292.847 93.6633C291.818 99.9436 291.98 101.351 293.875 104.925L295.554 108.227L293.334 108.119C290.952 108.011 291.06 107.956 289.057 112.288C288.353 113.858 286.296 116.511 284.13 118.622C281.098 121.654 279.907 122.412 277.363 123.17C275.63 123.657 271.84 125.227 268.971 126.743C262.257 130.1 256.356 132.103 252.945 132.103C250.563 132.103 249.805 132.428 246.232 135.027C242.334 137.896 234.375 141.848 232.534 141.848C232.047 141.848 230.964 142.498 230.152 143.364C228.907 144.61 228.582 145.476 228.311 148.724C228.095 150.836 227.661 153.272 227.391 154.084C226.687 155.871 226.524 159.011 227.066 159.552C227.282 159.823 228.798 160.094 230.423 160.256L233.4 160.527L228.961 163.234C217.645 170.164 217.429 170.218 211.907 168.432C210.12 167.89 205.464 167.132 201.566 166.807C196.964 166.428 193.282 165.833 191.279 165.075C184.349 162.584 182.4 162.53 178.772 164.642C176.553 165.941 176.499 165.941 176.499 164.479C176.499 163.288 173.521 158.415 171.139 155.817L169.839 154.355L171.897 152.46C173.9 150.565 173.954 150.511 173.629 147.425C173.25 143.635 172.059 142.39 167.782 141.361C164.912 140.657 164.804 140.712 160.798 142.606C158.578 143.689 156.358 144.555 155.817 144.555C155.275 144.555 154.193 143.798 153.38 142.877C151.107 140.333 148.887 139.52 145.909 140.278C144.61 140.603 143.094 140.766 142.661 140.549C141.307 140.062 139.142 141.145 139.142 142.39C139.142 142.985 140.224 144.555 141.524 145.909C144.935 149.32 145.097 149.645 144.231 153.164C143.148 157.712 143.256 159.065 145.043 161.068C146.288 162.476 146.667 163.559 146.992 166.428C147.317 169.893 147.425 170.056 149.753 171.68C153.489 174.225 153.651 174.658 154.084 184.349C154.463 192.849 154.463 192.957 155.979 194.365C157.495 195.718 157.495 195.718 156.9 199.292C156.033 204.381 157.116 210.12 159.228 211.961L160.744 213.206L158.199 213.531C156.791 213.693 154.951 213.855 154.03 213.855C153.164 213.801 151.648 214.234 150.728 214.722C149.537 215.371 148.454 215.534 147.1 215.263C145.097 214.884 145.097 214.83 145.097 212.285C145.097 209.308 144.61 208.712 141.47 208.008C138.384 207.304 136.759 208.171 136.543 210.607C136.326 212.719 135.947 213.098 132.915 213.91C131.724 214.234 130.262 214.83 129.613 215.209C128.53 215.913 128.476 215.859 128.53 214.018C128.584 211.527 127.339 210.607 125.39 211.69C124.145 212.34 123.874 212.285 123.278 211.419C122.629 210.607 122.087 210.499 119.922 210.878C117.648 211.203 116.836 211.69 114.183 214.397C112.504 216.129 110.664 218.295 110.122 219.215C109.581 220.136 108.985 220.894 108.769 220.894C108.606 220.894 108.119 219.486 107.74 217.808C107.199 215.317 106.603 214.234 104.546 212.177C103.03 210.661 101.351 208.117 100.214 205.68C96.966 198.534 97.3449 198.967 95.1252 198.913C93.3927 198.913 92.9054 198.588 92.0392 197.18C90.9564 195.448 88.7366 194.798 87.9786 195.989C87.8162 196.26 86.8417 196.53 85.9213 196.53C83.8639 196.53 81.0486 198.101 79.8034 200.05C78.6664 201.782 75.5804 201.999 74.7142 200.32C73.7396 198.534 72.1154 197.938 70.7078 198.913C69.6249 199.617 69.4084 200.266 69.1918 203.731C69.0294 205.897 68.7587 208.008 68.5421 208.333C68.2714 208.766 66.4848 208.983 63.6695 208.983C59.7714 208.983 59.0134 209.145 57.3892 210.336C55.0611 212.069 53.2745 212.123 52.7331 210.445C51.8668 207.575 49.5388 206.601 46.94 208.008C46.2903 208.333 44.3954 209.633 42.7712 210.878C39.7935 213.206 39.7393 213.206 38.4941 212.177C37.7903 211.582 36.8157 211.148 36.2743 211.148C35.4081 211.148 23.6596 216.887 20.736 218.728C19.599 219.432 14.0767 229.665 14.0767 231.072C14.0767 233.021 20.8442 234.591 23.6054 233.184C24.4717 232.751 26.3124 232.263 27.7201 232.101C30.752 231.668 31.7265 232.48 30.9144 234.591C30.4813 235.674 29.9399 235.999 28.3698 236.161C26.529 236.324 26.3124 236.486 25.6628 238.76C25.1213 240.547 25.1213 241.305 25.5545 241.9C26.5831 243.146 29.0736 244.174 31.0227 244.174C32.4303 244.174 33.459 244.716 35.1915 246.177L37.4654 248.235L31.4017 248.289C26.2583 248.343 25.1213 248.505 23.9303 249.426C22.8474 250.238 22.4685 250.996 22.4685 252.349C22.4685 254.136 22.5767 254.244 25.7169 255.273C29.4526 256.518 30.1023 256.897 31.8889 258.9C33.08 260.254 33.1342 260.525 32.5386 262.853C31.8348 265.722 32.701 268.592 34.7042 269.62C36.4367 270.595 42.3381 269.999 44.5578 268.7C45.5324 268.104 47.9146 267.455 49.8095 267.238C51.8127 267.022 53.7617 266.426 54.3573 265.939C55.1694 265.181 55.4401 265.181 55.6567 265.722C56.0898 266.967 59.1217 270.162 60.5835 270.92C61.3414 271.353 63.4529 271.84 65.2396 272.057C69.246 272.544 71.2492 273.518 71.6281 275.143C72.1696 277.2 76.0135 280.611 77.8002 280.503C84.5136 280.232 84.8926 280.286 87.0582 282.614C89.0073 284.617 89.3863 284.78 92.0933 284.78C93.7175 284.78 95.829 284.563 96.8035 284.292C98.1571 283.859 98.536 283.913 98.536 284.563C98.536 284.996 99.4023 286.296 100.485 287.433L102.38 289.598L109.581 289.273C116.023 289.003 116.781 289.057 117.106 289.869C117.323 290.41 117.106 291.547 116.619 292.414C115.32 295.012 114.995 300.968 116.078 303.079C117.594 306.003 118.73 306.436 123.982 305.949C126.527 305.732 129.017 305.353 129.613 305.082C130.479 304.703 130.587 304.812 130.371 306.219C130.208 307.086 129.775 308.493 129.396 309.414C128.909 310.659 128.855 311.579 129.342 313.258C129.883 315.207 130.208 315.586 131.778 315.856C133.836 316.235 134.648 316.993 134.81 318.618C135.027 320.513 134.864 320.946 133.782 321.325C133.24 321.487 132.103 322.245 131.345 322.949C129.559 324.627 129.504 326.793 131.291 331.07C132.32 333.669 133.078 334.643 135.081 335.943C137.03 337.242 138.167 338.595 140.278 342.439C141.74 345.092 143.202 348.287 143.473 349.478C144.014 352.022 146.721 354.675 151.756 357.599C153.597 358.682 156.25 360.306 157.658 361.226C159.174 362.201 161.231 362.959 162.639 363.121C164.696 363.392 165.129 363.663 165.725 365.016C167.24 368.644 169.027 368.968 173.9 366.532L177.148 364.854L176.823 366.315C176.607 367.128 175.957 368.481 175.362 369.293C174.062 371.134 174.062 372.271 175.362 375.249C176.986 379.039 177.852 383.695 177.094 384.561C176.769 384.994 176.553 386.672 176.607 388.351C176.661 390.029 176.553 391.545 176.336 391.762C175.686 392.465 174.225 390.57 173.304 387.863C172.709 386.185 171.734 384.723 170.435 383.695C168.486 382.125 168.377 382.125 167.024 382.991C165.183 384.236 165.291 386.077 167.565 390.462C168.54 392.465 169.569 394.956 169.785 396.039C170.056 397.609 170.327 397.934 171.518 397.934H172.871L171.734 399.179C170.327 400.695 170.272 401.615 171.518 403.131C172.763 404.647 174.008 405.243 177.365 406.001C179.585 406.542 180.667 407.246 183.104 409.736C186.785 413.58 189.005 416.45 190.521 419.427C191.712 421.755 193.553 428.74 193.066 429.173C192.957 429.281 192.687 428.577 192.47 427.603C192.253 426.628 191.55 424.842 190.846 423.65C189.492 421.268 182.346 414.338 178.502 411.631C174.387 408.762 174.062 409.628 173.196 425.275C172.925 430.31 172.438 437.998 172.113 442.329C171.734 446.66 171.518 451.858 171.518 453.861C171.572 456.622 171.301 458.138 170.489 459.762C168.377 463.931 170.056 465.609 174.225 463.498C176.661 462.253 177.04 462.415 177.04 464.635C177.04 465.826 176.823 466.151 175.849 466.151C175.145 466.151 173.629 466.746 172.438 467.396C170.381 468.533 170.272 468.804 169.893 471.836C169.677 473.622 169.135 476.762 168.702 478.874C168.269 480.931 167.619 486.562 167.295 491.326C166.645 501.18 164.75 511.412 160.906 525.381C157.495 537.833 154.463 542.868 149.428 544.33C147.046 545.034 146.992 545.142 147.1 547.091C147.317 550.069 148.075 550.718 150.782 550.285C153.056 549.961 153.11 550.015 153.705 551.855C154.084 552.938 154.626 553.913 155.005 554.021C156.088 554.4 157.549 553.371 157.549 552.234C157.549 551.639 157.603 551.152 157.712 551.152C157.766 551.152 159.444 551.693 161.393 552.397C164.696 553.588 164.912 553.75 164.533 554.996C163.992 557.107 162.909 558.894 161.231 560.464C160.419 561.222 159.715 562.142 159.715 562.467C159.715 563.387 163.342 566.852 164.317 566.852C164.804 566.852 165.887 566.311 166.753 565.715L168.323 564.524L170.435 566.257C172.005 567.448 173.142 567.935 174.658 567.935C176.011 567.935 177.094 568.314 177.906 569.072C178.61 569.776 180.018 570.317 181.209 570.426C182.346 570.48 184.349 570.967 185.648 571.4C186.948 571.887 188.788 572.266 189.763 572.266C191.008 572.266 192.091 572.808 193.769 574.432C195.015 575.677 196.585 576.598 197.289 576.598C199.021 576.598 200.158 577.681 200.699 579.846C201.295 582.228 202.811 582.553 204.977 580.767C206.168 579.738 206.98 579.521 208.55 579.738C210.012 579.9 210.986 579.63 212.177 578.817L213.801 577.681L216.671 580.712C218.241 582.391 219.649 583.907 219.811 584.123C219.973 584.34 220.786 585.044 221.652 585.693C223.817 587.318 227.337 587.263 231.126 585.531L234.104 584.123L236.324 586.343C237.515 587.534 238.76 588.509 239.085 588.509C239.41 588.509 240.222 587.913 240.872 587.209C241.955 586.072 242.334 585.964 244.283 586.451C245.528 586.722 248.451 586.83 250.779 586.722C254.569 586.56 255.219 586.343 256.627 584.989C258.359 583.311 258.738 581.146 257.709 578.438C257.385 577.626 257.222 576.923 257.331 576.814C257.439 576.706 259.442 577.41 261.824 578.438C264.423 579.521 267.455 580.333 269.62 580.55C274.277 580.983 274.601 581.146 275.684 583.636C276.388 585.368 276.875 585.802 278.012 585.802C278.824 585.802 279.799 585.423 280.232 584.989C280.99 584.286 281.315 584.34 283.21 585.26C284.347 585.856 285.321 586.722 285.321 587.101C285.321 587.534 285.971 588.617 286.729 589.537C288.516 591.703 290.735 591.811 292.305 589.808C293.28 588.563 293.551 588.454 294.363 589.104C294.85 589.537 296.312 589.862 297.611 589.862C299.939 589.862 300.047 589.916 300.805 592.028C301.401 593.76 301.455 594.464 300.914 595.439C300.047 597.117 300.914 598.416 302.971 598.471C303.837 598.525 305.841 599.337 307.411 600.365C309.684 601.827 310.226 602.423 310.226 603.668C310.226 606.267 311.417 606.7 315.261 605.563C317.102 605.022 319.917 603.993 321.487 603.235L324.411 601.936L327.659 603.614C330.204 604.913 331.666 605.292 333.939 605.292C336.484 605.292 337.188 605.509 338.487 606.754L340.003 608.216L341.519 607.025C344.443 604.697 348.774 602.477 352.672 601.232C356.57 599.986 356.841 599.986 360.577 600.744C366.64 602.044 367.453 601.015 363.879 596.738C360.198 592.298 359.331 587.913 360.902 581.795C361.768 578.384 361.714 573.024 360.685 566.852C360.198 563.929 360.198 563.821 362.147 561.655C364.042 559.489 365.016 557.865 365.612 555.97C365.828 555.375 366.803 554.996 368.698 554.779C370.268 554.562 371.946 554.075 372.488 553.588C372.975 553.155 374.22 552.776 375.195 552.776C376.711 552.776 377.577 552.18 380.446 549.257C383.045 546.55 383.857 545.359 383.857 544.167C383.857 542.435 385.644 541.352 386.727 542.435C387.701 543.409 390.083 543.085 391.329 541.785C391.978 541.136 393.061 539.511 393.765 538.158C394.631 536.534 395.497 535.667 396.526 535.397C397.392 535.18 398.475 534.585 399.017 534.097C399.883 533.285 399.991 533.393 400.641 534.909C401.074 535.884 402.157 537.021 403.294 537.616C404.376 538.158 405.947 539.349 406.813 540.269C408.545 542.11 411.252 542.543 411.794 541.136C412.064 540.486 412.335 540.594 413.201 541.731C415.367 544.438 418.67 544.438 420.781 541.785L421.756 540.594V542.056C421.756 543.951 423.272 544.817 425.058 543.897C426.195 543.301 426.628 543.464 428.848 545.034C434.858 549.311 438.323 549.203 439.73 544.601C440.055 543.409 440.488 542.489 440.705 542.489C441.246 542.489 442.87 544.384 442.87 545.034C442.87 546.604 444.982 547.362 451.046 547.903C454.402 548.174 457.651 548.445 458.192 548.445C459.437 548.445 459.383 549.636 457.976 552.289C456.73 554.833 456.785 557.269 458.138 557.54C458.68 557.648 460.683 557.107 462.632 556.295C466.692 554.671 467.883 554.833 469.237 557.215C469.778 558.082 471.348 559.435 472.702 560.085C475.517 561.547 481.906 562.846 483.368 562.25C484.775 561.655 500.53 560.247 504.753 560.356C507.514 560.41 508.814 560.193 509.897 559.435C510.654 558.894 512.549 557.865 514.065 557.107C515.527 556.349 516.772 555.483 516.827 555.212C516.827 554.887 517.043 553.426 517.26 551.964C517.585 549.69 517.909 549.094 519.263 548.282C520.237 547.741 521.266 546.496 521.753 545.196C522.403 543.518 522.89 543.031 523.865 543.031C525.327 543.031 529.279 539.728 529.766 538.104C529.983 537.562 531.174 536.642 532.473 536.046C536.046 534.476 539.078 531.823 540.486 529.008C541.623 526.788 541.948 526.518 543.789 526.355C546.604 526.139 554.346 522.078 555.104 520.454C555.537 519.533 555.537 518.505 555.104 516.989C554.563 514.986 554.671 514.661 555.808 513.361C560.085 508.597 562.467 505.457 563.171 503.562C563.983 501.451 563.983 501.288 562.9 499.935C562.25 499.068 561.763 497.661 561.763 496.253C561.709 494.466 561.493 493.979 560.626 493.871C559.977 493.763 558.948 494.304 558.19 495.116C557.215 496.145 556.403 496.47 554.671 496.47C553.48 496.47 552.234 496.686 551.91 497.011C550.935 497.986 548.12 497.769 546.496 496.632C545.629 496.036 543.951 495.224 542.76 494.845C541.569 494.466 539.403 493.6 537.887 492.95C536.425 492.301 534.531 491.434 533.664 491.11C532.852 490.785 531.932 489.864 531.661 489.052C531.336 488.186 530.632 486.67 530.037 485.587C529.441 484.504 528.954 482.772 528.954 481.797C528.954 480.769 528.467 478.982 527.925 477.791C527.005 475.734 527.005 475.571 527.871 474.272C528.358 473.514 529.333 471.402 530.037 469.508C531.228 466.205 531.282 466.151 533.339 466.151C535.288 466.151 535.451 466.043 535.451 464.581C535.451 463.66 534.855 462.307 534.097 461.386C533.123 460.249 532.744 459.113 532.744 457.597C532.744 454.944 532.202 454.456 527.221 452.941C523.486 451.804 523.215 451.641 522.078 449.367C521.428 448.014 520.887 446.335 520.887 445.632C520.833 444.928 519.967 443.412 518.938 442.275C516.502 439.568 516.502 438.539 518.83 438.539C519.858 438.539 520.833 438.377 520.995 438.16C521.212 437.944 522.728 437.889 524.352 437.944C527.492 438.106 527.925 437.835 531.011 433.775C532.094 432.259 532.365 432.205 533.827 432.746C535.126 433.233 535.559 433.179 536.48 432.367C538.158 430.797 539.457 427.007 539.024 424.517C538.808 423.001 538.916 422.243 539.511 421.755C540.973 420.51 540.378 419.157 537.021 416.396C535.234 414.88 533.556 413.634 533.285 413.634C533.069 413.634 532.581 412.876 532.148 411.956C531.607 410.603 531.607 409.899 532.094 408.599C532.906 406.434 531.823 404.647 529.387 403.997C527.925 403.618 527.167 402.806 525.327 399.666L523.053 395.822L524.244 394.956C524.893 394.523 525.76 394.144 526.139 394.144C527.276 394.144 533.827 387.647 533.827 386.51C533.827 384.832 531.769 380.717 530.632 380.121C530.037 379.797 528.846 379.526 527.979 379.526C526.409 379.526 526.409 379.526 526.843 377.198C527.492 373.733 527.492 373.57 525.327 372.65C524.19 372.217 523.161 371.73 523.053 371.621C522.944 371.513 523.757 370.376 524.839 369.023C527.384 365.937 527.384 364.096 525.002 361.768C523.594 360.414 523.215 359.656 523.432 358.519C523.702 356.678 523.215 356.245 518.451 354.35C514.282 352.726 512.82 352.78 508.164 354.567C506.648 355.163 504.699 355.812 503.887 355.975C503.021 356.137 501.18 357.382 499.772 358.682C496.74 361.497 495.766 361.659 494.521 359.602C493.979 358.79 493.005 357.653 492.301 357.003L491.001 355.866L492.951 353.051C494.954 350.019 495.17 349.207 494.304 347.583C493.871 346.771 494.358 346.229 497.39 344.118C500.476 342.006 504.158 338.325 505.565 335.943C505.782 335.564 506.702 334.968 507.568 334.535C508.922 333.885 509.247 333.398 509.355 331.665C509.518 329.554 508.11 325.385 507.189 325.385C506.973 325.385 506.756 325.169 506.756 324.952C506.756 324.736 508.814 323.869 511.304 323.057C514.661 321.974 516.718 320.892 518.938 319.051C521.753 316.723 521.97 316.344 521.753 314.774C521.483 313.258 521.753 312.825 523.648 311.309C524.948 310.28 526.409 308.277 527.276 306.544C529.495 301.834 529.55 301.78 532.04 301.13C533.935 300.589 534.368 300.264 534.368 299.181C534.368 297.719 532.527 296.312 530.037 295.77C528.142 295.391 528.196 295.608 529.225 293.009C530.524 289.869 532.636 288.515 535.667 288.894C538.32 289.273 538.645 289.652 537.346 290.735C536.317 291.601 536.317 292.576 537.292 293.388C537.833 293.875 539.457 293.929 542.76 293.659C547.091 293.334 547.633 293.117 550.015 291.222C551.693 289.977 552.938 288.353 553.534 286.945L554.454 284.671L556.782 284.996C559.76 285.484 560.572 284.617 560.031 281.748C559.76 280.34 558.786 278.77 556.999 276.875L554.4 274.114L555.537 271.461C556.133 269.999 556.728 267.78 556.782 266.534C556.891 265.289 557.594 263.178 558.407 261.77C560.085 258.684 560.139 258.088 558.677 255.76C557.54 253.92 557.324 252.133 557.54 246.773C557.649 243.849 557.811 243.47 560.301 240.709C562.142 238.706 563.117 237.082 563.387 235.674C563.55 234.537 564.2 232.805 564.741 231.83C565.499 230.531 565.77 229.069 565.716 226.687C565.661 224.142 565.932 222.735 566.907 220.894C568.91 216.941 573.945 209.957 576.652 207.359C579.521 204.597 581.687 200.591 583.907 193.661C585.802 187.868 585.585 187.489 580.171 186.948C577.356 186.677 576.111 186.298 574.919 185.269C573.674 184.241 572.97 184.024 571.563 184.295C567.556 185.053 563.712 184.89 559.273 183.807C554.942 182.725 554.671 182.562 554.184 180.938C553.913 179.963 553.101 178.556 552.397 177.798C550.989 176.282 550.502 176.282 545.792 178.502C543.518 179.53 542.381 179.747 540.648 179.53C539.457 179.314 537.454 179.097 536.263 179.043C534.097 178.935 531.715 177.581 529.225 175.091C528.521 174.387 527.709 173.791 527.492 173.791C526.193 173.846 522.89 175.362 522.241 176.282C521.483 177.256 521.428 177.256 520.4 176.336C519.858 175.849 519.046 174.387 518.667 173.088C517.639 169.623 516.61 167.836 515.148 167.186C514.228 166.753 513.686 165.995 513.47 164.642C513.307 163.559 513.037 162.259 512.874 161.718C512.549 160.473 506.54 157.549 504.428 157.549C503.616 157.549 501.667 156.791 500.097 155.925C498.473 155.005 496.578 154.301 495.874 154.301C495.116 154.301 492.951 155.384 491.11 156.737C488.349 158.632 487.482 159.011 486.67 158.578C486.075 158.307 485.642 157.82 485.642 157.549C485.642 156.087 483.801 155.384 479.794 155.384C476.329 155.384 475.517 155.221 474.434 154.247C473.135 153.001 471.294 152.731 468.533 153.38C466.53 153.868 464.31 152.406 463.227 149.699C461.874 146.45 458.301 144.393 457.164 146.234C456.947 146.613 456.514 146.18 456.081 145.205C455.539 143.906 454.89 143.419 453.157 142.931C451.804 142.552 450.179 141.578 449.151 140.495C447.256 138.438 442.112 135.893 440.001 135.893C438.593 135.893 438.539 135.731 438.539 133.24C438.539 131.724 438.81 130.371 439.135 130.154C440.001 129.613 439.351 124.902 438.16 122.899C437.24 121.275 437.24 121.167 438.377 118.947C439.839 116.023 440.326 113.208 439.568 112.288C439.189 111.855 437.889 111.53 436.536 111.53C434.316 111.53 433.829 111.8 431.447 114.183C429.173 116.511 428.794 117.16 428.794 119.055C428.794 121.492 427.386 122.899 424.95 122.899C424.138 122.899 422.189 123.765 420.619 124.794C417.424 126.96 416.775 126.96 411.306 124.902C408.112 123.711 408.112 123.711 408.383 121.762C408.545 120.679 409.141 119.272 409.79 118.622C410.44 117.972 410.927 116.781 410.927 115.969C410.927 114.399 409.52 112.613 408.329 112.613C407.95 112.613 407.679 112.017 407.679 111.313C407.679 109.093 408.654 107.198 410.115 106.657C412.119 105.899 411.848 104.275 409.466 102.813C408.329 102.163 406.542 100.647 405.459 99.5105L403.564 97.5073H397.338C393.115 97.5073 390.787 97.778 390.029 98.2653C388.946 98.9691 388.838 98.8608 388.243 96.0996C387.43 92.5264 384.886 88.5741 382.179 86.7874C380.067 85.3798 375.682 84.8925 373.191 85.7588C372.217 86.1378 371.73 85.8129 370.322 83.8638C369.077 82.0772 368.698 81.1568 368.968 80.1281C370.16 75.4179 370.16 75.472 366.37 73.0898C364.096 71.6281 362.742 70.437 362.526 69.5707C362.038 67.7299 360.252 67.4051 356.841 68.5421C354.35 69.3541 352.51 70.8701 351.698 72.7109C351.427 73.4147 349.045 70.9784 346.663 67.5134C345.58 65.9974 344.659 65.3478 342.819 64.8605L340.382 64.265L340.761 59.6088C341.086 55.2776 341.032 54.8445 339.787 53.0037C339.083 51.9209 338.271 50.1342 338.054 48.9431C337.892 47.8062 337.459 46.5068 337.134 46.1278C336.322 45.0992 334.481 45.3699 332.694 46.8858Z" fill="#180733"/>
<path d="M633.554 565.77C631.009 566.148 630.251 566.906 630.143 569.018C630.143 569.776 629.981 573.512 629.872 577.356C629.764 581.2 629.547 584.502 629.385 584.61C629.223 584.773 628.573 584.61 627.869 584.34C626.353 583.636 623.267 584.231 618.773 586.126C617.095 586.83 615.254 587.426 614.713 587.426C613.468 587.426 608.487 589.7 606.375 591.216C605.563 591.811 604.48 592.298 604.101 592.298C602.477 592.298 601.503 594.193 601.503 597.333C601.503 599.932 601.286 600.474 600.095 601.448C599.337 602.044 598.254 602.693 597.659 602.856C596.901 603.127 596.63 603.722 596.63 605.021C596.63 606.7 596.792 606.916 598.741 607.458C599.878 607.728 601.124 608.378 601.557 608.865C602.152 609.569 602.044 609.623 600.799 609.353C599.066 608.865 596.63 611.031 596.63 613.088C596.63 615.579 600.311 620.614 603.668 622.671C604.318 623.05 604.21 623.375 602.856 624.512C601.99 625.27 600.636 626.19 599.878 626.569C598.146 627.436 597.983 628.464 599.337 630.576C600.311 632.254 600.582 632.362 603.397 632.362C605.022 632.362 606.375 632.579 606.375 632.85C606.375 633.12 606.104 634.582 605.78 636.044C605.238 638.372 604.913 638.805 603.614 639.076C602.531 639.292 602.044 639.726 602.044 640.375C602.044 642.108 603.831 643.191 606.538 643.191C609.299 643.191 610.327 644.057 608.812 645.14C608.27 645.573 607.783 646.818 607.62 648.28C607.35 650.445 607.566 650.987 609.299 653.369C611.356 656.238 612.114 656.726 614.388 656.726C615.2 656.726 616.878 657.213 618.178 657.809C620.127 658.675 620.722 659.379 621.805 661.815C622.78 664.089 623.484 664.901 624.566 665.172C626.516 665.659 628.573 663.981 629.385 661.274C629.71 660.082 630.684 658.133 631.442 656.942C632.254 655.805 632.904 654.56 632.904 654.235C632.904 653.91 633.391 652.99 634.041 652.178C634.853 651.149 635.124 650.229 634.907 648.984C634.745 647.847 634.961 646.926 635.503 646.277C636.098 645.573 636.423 643.57 636.694 638.968L637.073 632.633L640.43 626.028C643.516 619.856 643.732 619.152 643.732 615.741C643.732 613.738 643.462 609.894 643.191 607.241C642.758 603.776 642.812 601.881 643.245 600.582C643.841 598.687 643.137 592.623 642.054 590.566C641.783 590.025 641.567 589.212 641.567 588.779C641.567 588.292 640.971 587.642 640.213 587.317C639.184 586.83 638.914 586.451 639.184 585.585C639.563 584.34 640.646 582.282 641.675 580.875C642.108 580.225 642 579.467 641.133 577.626C640.484 576.165 639.888 573.62 639.726 571.184C639.509 567.881 639.239 566.961 638.264 566.148C637.614 565.661 636.856 565.282 636.477 565.282C636.153 565.336 634.799 565.553 633.554 565.77Z" fill="#180733"/>
<circle cx="334.5" cy="214.5" r="12.5" fill="#FF6B8B"/>
<circle cx="334.5" cy="214.5" r="7.5" fill="#EA1958"/>
<circle cx="334.5" cy="214.5" r="12.5" fill="#FF6B8B"/>
<circle cx="334.5" cy="214.5" r="7.5" fill="#EA1958"/>
<circle cx="478.5" cy="227.5" r="12.5" fill="#FF6B8B"/>
<circle cx="478.5" cy="227.5" r="7.5" fill="#EA1958"/>
<circle cx="361.5" cy="241.5" r="12.5" fill="#FF6B8B"/>
<circle cx="361.5" cy="241.5" r="7.5" fill="#EA1958"/>
<circle cx="299.5" cy="227.5" r="12.5" fill="#FF6B8B"/>
<circle cx="299.5" cy="227.5" r="7.5" fill="#EA1958"/>
<circle cx="471.5" cy="406.5" r="12.5" fill="#FF6B8B"/>
<circle cx="471.5" cy="406.5" r="7.5" fill="#EA1958"/>
<circle cx="437.5" cy="386.5" r="12.5" fill="#FF6B8B"/>
<circle cx="437.5" cy="386.5" r="7.5" fill="#EA1958"/>
<circle cx="214.5" cy="284.5" r="12.5" fill="#FF6B8B"/>
<circle cx="214.5" cy="284.5" r="7.5" fill="#EA1958"/>
<circle cx="354.5" cy="109.5" r="12.5" fill="#FF6B8B"/>
<circle cx="354.5" cy="109.5" r="7.5" fill="#EA1958"/>
<circle cx="147.5" cy="302.5" r="12.5" fill="#FF6B8B"/>
<circle cx="147.5" cy="302.5" r="7.5" fill="#EA1958"/>
<circle cx="167.5" cy="234.5" r="12.5" fill="#FF6B8B"/>
<circle cx="167.5" cy="234.5" r="7.5" fill="#EA1958"/>
<circle cx="214.5" cy="431.5" r="12.5" fill="#FF6B8B"/>
<circle cx="214.5" cy="431.5" r="7.5" fill="#EA1958"/>
<circle cx="261.5" cy="542.5" r="12.5" fill="#FF6B8B"/>
<circle cx="261.5" cy="542.5" r="7.5" fill="#EA1958"/>
<circle cx="374.5" cy="537.5" r="12.5" fill="#FF6B8B"/>
<circle cx="374.5" cy="537.5" r="7.5" fill="#EA1958"/>
<circle cx="505.5" cy="537.5" r="12.5" fill="#FF6B8B"/>
<circle cx="505.5" cy="537.5" r="7.5" fill="#EA1958"/>
<circle cx="106.5" cy="271.5" r="12.5" fill="#FF6B8B"/>
<circle cx="106.5" cy="271.5" r="7.5" fill="#EA1958"/>
</svg>
