<svg width="218" height="35" viewBox="0 0 218 35" fill="none" xmlns="http://www.w3.org/2000/svg">
<g clip-path="url(#clip0_265_323)">
<path d="M8.08601 0H0V23.5402H21.9335V16.3223H8.08601V0Z" fill="#FFFEFA"/>
<path d="M32.8051 0L22.496 23.5402H31.1106L32.7196 19.5853H43.6677L45.2749 23.5402H53.8913L43.5822 0H32.8051ZM35.336 13.1502L38.1945 6.1213L41.053 13.1502H35.3378H35.336Z" fill="#FFFEFA"/>
<path d="M73.7957 15.3505L68.1784 0H55.6765V23.5402H63.3531V7.10021L69.7767 23.5402H77.7649L84.1867 7.02175V23.5402H91.8651V0H79.3632L73.7957 15.3505Z" fill="#FFFEFA"/>
<path d="M103.958 0L93.6486 23.5402H102.265L103.872 19.5853H114.82L116.427 23.5402H125.044L114.737 0H103.959H103.958ZM106.489 13.1502L109.347 6.1213L112.206 13.1502H106.49H106.489Z" fill="#FFFEFA"/>
<path d="M146.49 14.7211C147.899 14.072 148.996 13.1573 149.779 11.9751C150.562 10.793 150.954 9.42712 150.954 7.87941C150.954 6.3317 150.56 4.90703 149.779 3.73554C148.996 2.56228 147.899 1.64756 146.49 0.987824C145.08 0.329869 143.435 0 141.556 0H126.829V23.5402H134.915V15.6929H137.32L142.654 23.5402H151.897L145.831 14.9761C146.054 14.894 146.28 14.8174 146.491 14.7211H146.49ZM134.915 5.68088H140.303C141.097 5.68088 141.712 5.86989 142.152 6.24612C142.59 6.62234 142.809 7.16618 142.809 7.87763C142.809 8.58908 142.59 9.13292 142.152 9.50915C141.712 9.88538 141.097 10.0744 140.303 10.0744H134.915V5.6791V5.68088Z" fill="#FFFEFA"/>
<path d="M170.098 23.5402H179.341L173.275 14.9761C173.498 14.894 173.724 14.8174 173.935 14.7211C175.345 14.072 176.442 13.1573 177.225 11.9751C178.008 10.793 178.399 9.42712 178.399 7.87941C178.399 6.3317 178.006 4.90703 177.225 3.73554C176.442 2.56228 175.345 1.64756 173.935 0.987824C172.526 0.329869 170.881 0 169.002 0H154.275V23.5402H162.361V15.6929H164.766L170.1 23.5402H170.098ZM162.361 5.68088H167.749C168.542 5.68088 169.158 5.86989 169.598 6.24612C170.036 6.62234 170.255 7.16618 170.255 7.87763C170.255 8.58908 170.036 9.13292 169.598 9.50915C169.16 9.88538 168.542 10.0744 167.749 10.0744H162.361V5.6791V5.68088Z" fill="#FFFEFA"/>
<path d="M61.171 28.0479V33.3525L60.8577 33.0458H65.0992V33.6681H60.4768V28.0496H61.1727L61.171 28.0479Z" fill="#FFFEFA"/>
<path d="M64.7682 29.845L65.2915 28.6842L65.3217 28.932C65.2363 28.932 65.158 28.9106 65.0868 28.8678C65.0156 28.8251 64.9569 28.768 64.9141 28.6949C64.8714 28.6218 64.8501 28.5433 64.8501 28.4595C64.8501 28.3757 64.8714 28.2973 64.9141 28.2277C64.9569 28.1582 65.0138 28.1011 65.0868 28.0583C65.1598 28.0155 65.2381 27.9941 65.3217 27.9941C65.4107 27.9941 65.4926 28.0155 65.5656 28.0583C65.6385 28.1011 65.6955 28.1582 65.7382 28.2313C65.7809 28.3044 65.8023 28.39 65.8023 28.4898C65.8023 28.579 65.7845 28.6753 65.7507 28.7787C65.7151 28.8821 65.6492 29.0194 65.5496 29.1942L65.1829 29.8468H64.7717L64.7682 29.845Z" fill="#FFFEFA"/>
<path d="M66.6602 27.8979H67.3401V33.6662H66.6602V27.8979ZM69.0826 29.3512C69.4759 29.3512 69.8106 29.4296 70.0847 29.5865C70.3588 29.7434 70.5688 29.9717 70.713 30.2677C70.8571 30.5654 70.9301 30.9256 70.9301 31.35V33.6644H70.2413V31.4623C70.2413 30.9577 70.1256 30.5779 69.8942 30.3194C69.6628 30.0626 69.3246 29.9342 68.8815 29.9342C68.5718 29.9342 68.3012 30.0038 68.0698 30.1446C67.8384 30.2855 67.6587 30.4781 67.5305 30.7259C67.4041 30.9738 67.3401 31.2608 67.3401 31.5907L67.0642 31.3963C67.0998 30.9773 67.2066 30.6154 67.3864 30.3105C67.5661 30.0055 67.8011 29.7702 68.093 29.6026C68.3849 29.435 68.7141 29.3512 69.0844 29.3512H69.0826Z" fill="#FFFEFA"/>
<path d="M73.7281 33.7641C73.3436 33.7641 73.0179 33.6856 72.7527 33.5287C72.4857 33.3718 72.281 33.1436 72.1386 32.8476C71.9962 32.5498 71.925 32.1896 71.925 31.7653V29.4508H72.605V31.6529C72.605 32.1522 72.7189 32.532 72.9449 32.7923C73.171 33.0526 73.5002 33.181 73.9292 33.181C74.2336 33.181 74.497 33.1133 74.7212 32.9742C74.9455 32.8351 75.1199 32.6425 75.2445 32.3929C75.3691 32.1433 75.4314 31.8526 75.4314 31.5246L75.7002 31.6743C75.6699 32.0987 75.5667 32.4678 75.3905 32.7834C75.2143 33.099 74.9829 33.3397 74.6981 33.5109C74.4133 33.6803 74.0894 33.7659 73.7263 33.7659L73.7281 33.7641ZM75.6646 33.666L75.4332 32.2342V29.4473H76.1131V32.3394L76.3516 33.666H75.6628H75.6646Z" fill="#FFFEFA"/>
<path d="M77.085 29.4491H77.7649L78.0034 30.881V33.6679H77.3235V30.7829L77.085 29.4491ZM79.6142 29.3511C79.9773 29.3511 80.2887 29.4295 80.5451 29.5864C80.8014 29.7433 80.9971 29.9716 81.1289 30.2676C81.2606 30.5653 81.3264 30.9255 81.3264 31.3499V33.6643H80.6465V31.4622C80.6465 30.9576 80.5415 30.5778 80.3315 30.3193C80.1214 30.0625 79.8153 29.9341 79.4113 29.9341C79.1265 29.9341 78.8809 30.0037 78.6708 30.1445C78.4608 30.2836 78.2988 30.478 78.1814 30.7258C78.0639 30.9737 78.0052 31.2607 78.0052 31.5906L77.7293 31.3963C77.7649 30.9772 77.8646 30.6153 78.0319 30.3104C78.1992 30.0055 78.4181 29.7701 78.6904 29.6025C78.9627 29.4349 79.2707 29.3511 79.6142 29.3511ZM82.9337 29.3511C83.2968 29.3511 83.6082 29.4295 83.8645 29.5864C84.1208 29.7433 84.3166 29.9716 84.4483 30.2676C84.58 30.5653 84.6459 30.9255 84.6459 31.3499V33.6643H83.966V31.4622C83.966 30.9576 83.861 30.5778 83.6527 30.3193C83.4427 30.0625 83.1366 29.9341 82.7325 29.9341C82.4477 29.9341 82.2021 30.0037 81.9921 30.1445C81.7821 30.2836 81.6201 30.478 81.5026 30.7258C81.3852 30.9737 81.3264 31.2607 81.3264 31.5906L81.0505 31.3963C81.0861 30.9772 81.1858 30.6153 81.3531 30.3104C81.5204 30.0055 81.7394 29.7701 82.0117 29.6025C82.284 29.4349 82.5919 29.3511 82.9354 29.3511H82.9337Z" fill="#FFFEFA"/>
<path d="M89.9784 31.5624C89.868 32.0028 89.7007 32.3862 89.4729 32.7161C89.2451 33.0459 88.971 33.3027 88.6506 33.4881C88.3285 33.6736 87.9743 33.7645 87.5845 33.7645C87.1697 33.7645 86.8049 33.6718 86.4845 33.4828C86.1659 33.2956 85.9149 33.037 85.7334 32.7071C85.5518 32.3773 85.4611 31.9957 85.4611 31.5606C85.4611 31.1256 85.5518 30.7368 85.7334 30.407C85.9149 30.0771 86.1659 29.8186 86.4845 29.6313C86.8031 29.4441 87.1697 29.3496 87.5845 29.3496C87.9743 29.3496 88.3285 29.4423 88.6506 29.626C88.9728 29.8114 89.2469 30.0682 89.4765 30.3981C89.7061 30.7279 89.8734 31.1149 89.9784 31.5588V31.5624ZM86.1659 31.5624C86.1659 31.8816 86.2317 32.1651 86.3635 32.4094C86.4952 32.6536 86.6767 32.8444 86.9063 32.9817C87.1359 33.119 87.3994 33.1886 87.6984 33.1886C87.9974 33.1886 88.2733 33.1208 88.5242 32.9817C88.7752 32.8444 88.9995 32.6536 89.197 32.4094C89.3946 32.1651 89.5548 31.8816 89.6794 31.5624C89.5548 31.2379 89.3946 30.9526 89.197 30.7083C88.9995 30.464 88.7752 30.2732 88.5242 30.1359C88.2715 29.9986 87.9974 29.9291 87.6984 29.9291C87.3994 29.9291 87.1341 29.9986 86.9063 30.1359C86.6767 30.2732 86.497 30.464 86.3635 30.7083C86.2317 30.9526 86.1659 31.2379 86.1659 31.5624ZM89.7096 33.6664L89.5601 32.0706L89.747 31.5606L89.5601 31.0435L89.7096 29.4477H90.4127L90.2116 31.5606L90.4127 33.6664H89.7096Z" fill="#FFFEFA"/>
<path d="M91.7743 28.8128C91.6301 28.8128 91.5108 28.7682 91.4147 28.6808C91.3186 28.5935 91.2723 28.4847 91.2723 28.3545C91.2723 28.2244 91.3204 28.1085 91.4147 28.0211C91.5091 27.9337 91.6283 27.8892 91.7743 27.8892C91.9202 27.8892 92.0466 27.9337 92.1409 28.0211C92.2353 28.1085 92.2833 28.219 92.2833 28.3545C92.2833 28.4901 92.2353 28.5935 92.1409 28.6808C92.0466 28.7682 91.9238 28.8128 91.7743 28.8128ZM91.4379 29.4333L91.7743 29.4939L92.1178 29.4333V33.6663H91.4379V29.4333Z" fill="#FFFEFA"/>
<path d="M93.0452 29.4491H93.7251L93.9636 30.881V33.6679H93.2837V30.7829L93.0452 29.4491ZM95.7079 29.3511C96.1012 29.3511 96.4358 29.4295 96.7099 29.5864C96.984 29.7433 97.1941 29.9716 97.3382 30.2676C97.4824 30.5653 97.5554 30.9255 97.5554 31.3499V33.6643H96.8755V31.4622C96.8755 30.9576 96.7598 30.5778 96.5284 30.3193C96.297 30.0625 95.9571 29.9341 95.5067 29.9341C95.197 29.9341 94.9265 30.0037 94.6951 30.1445C94.4637 30.2854 94.284 30.478 94.1558 30.7258C94.0294 30.9737 93.9654 31.2607 93.9654 31.5906L93.6895 31.3963C93.7251 30.9772 93.8319 30.6153 94.0116 30.3104C94.1914 30.0055 94.4263 29.7701 94.7182 29.6025C95.0101 29.4349 95.3394 29.3511 95.7096 29.3511H95.7079Z" fill="#FFFEFA"/>
<path d="M104.953 31.5624C104.842 32.0028 104.675 32.3862 104.447 32.7161C104.219 33.0459 103.945 33.3027 103.625 33.4881C103.303 33.6736 102.948 33.7645 102.559 33.7645C102.144 33.7645 101.779 33.6718 101.459 33.4828C101.14 33.2956 100.889 33.037 100.707 32.7071C100.526 32.3773 100.435 31.9957 100.435 31.5606C100.435 31.1256 100.526 30.7368 100.707 30.407C100.889 30.0771 101.14 29.8186 101.459 29.6313C101.777 29.4441 102.144 29.3496 102.559 29.3496C102.948 29.3496 103.303 29.4423 103.625 29.626C103.947 29.8114 104.221 30.0682 104.451 30.3981C104.68 30.7279 104.847 31.1149 104.953 31.5588V31.5624ZM101.138 31.5624C101.138 31.8816 101.204 32.1651 101.336 32.4094C101.468 32.6536 101.649 32.8444 101.879 32.9817C102.108 33.119 102.372 33.1886 102.671 33.1886C102.97 33.1886 103.246 33.1208 103.497 32.9817C103.748 32.8444 103.972 32.6536 104.169 32.4094C104.367 32.1651 104.527 31.8816 104.652 31.5624C104.527 31.2379 104.367 30.9526 104.169 30.7083C103.972 30.464 103.748 30.2732 103.497 30.1359C103.244 29.9986 102.97 29.9291 102.671 29.9291C102.372 29.9291 102.106 29.9986 101.879 30.1359C101.649 30.2732 101.469 30.464 101.336 30.7083C101.204 30.9526 101.138 31.2379 101.138 31.5624ZM104.682 33.6664L104.532 32.0706L104.719 31.5606L104.532 31.0435L104.682 29.4477H105.385L105.184 31.5606L105.385 33.6664H104.682Z" fill="#FFFEFA"/>
<path d="M108.153 33.7641C107.768 33.7641 107.443 33.6856 107.177 33.5287C106.91 33.3718 106.706 33.1436 106.563 32.8476C106.421 32.5498 106.35 32.1896 106.35 31.7653V29.4508H107.03V31.6529C107.03 32.1522 107.144 32.532 107.37 32.7923C107.596 33.0526 107.925 33.181 108.354 33.181C108.658 33.181 108.922 33.1133 109.146 32.9742C109.37 32.8351 109.545 32.6425 109.669 32.3929C109.794 32.1433 109.856 31.8526 109.856 31.5246L110.125 31.6743C110.095 32.0987 109.991 32.4678 109.815 32.7834C109.639 33.099 109.408 33.3397 109.123 33.5109C108.838 33.6803 108.514 33.7659 108.151 33.7659L108.153 33.7641ZM110.089 33.666L109.858 32.2342V29.4473H110.538V32.3394L110.776 33.666H110.087H110.089Z" fill="#FFFEFA"/>
<path d="M118.234 32.0635C118.179 32.3987 118.044 32.6947 117.826 32.9514C117.609 33.2082 117.335 33.4079 117.004 33.5505C116.673 33.6932 116.303 33.7645 115.894 33.7645C115.425 33.7645 115.013 33.6718 114.657 33.4828C114.301 33.2956 114.021 33.037 113.818 32.7071C113.617 32.3773 113.516 31.9957 113.516 31.5606C113.516 31.1256 113.617 30.7368 113.818 30.407C114.019 30.0771 114.299 29.8186 114.657 29.6313C115.013 29.4441 115.425 29.3496 115.894 29.3496C116.303 29.3496 116.673 29.4227 117.004 29.5671C117.335 29.7116 117.609 29.9113 117.826 30.1627C118.044 30.4159 118.179 30.7119 118.234 31.0507H117.531C117.456 30.7012 117.271 30.4248 116.974 30.2233C116.677 30.0218 116.317 29.9202 115.894 29.9202C115.554 29.9202 115.258 29.9879 115.007 30.1217C114.754 30.2572 114.56 30.4444 114.423 30.6869C114.286 30.9294 114.217 31.2201 114.217 31.5606C114.217 31.9012 114.285 32.1776 114.423 32.4218C114.56 32.6661 114.754 32.8569 115.007 32.9907C115.258 33.1262 115.554 33.1921 115.894 33.1921C116.322 33.1921 116.686 33.0905 116.981 32.8854C117.278 32.6804 117.462 32.4058 117.531 32.0617H118.234V32.0635Z" fill="#FFFEFA"/>
<path d="M121.285 33.7642C120.792 33.7642 120.357 33.6715 119.984 33.4878C119.61 33.3024 119.318 33.0438 119.108 32.7122C118.898 32.3805 118.795 31.9972 118.795 31.5621C118.795 31.127 118.9 30.7383 119.108 30.4084C119.318 30.0786 119.61 29.82 119.984 29.6328C120.357 29.4456 120.792 29.3511 121.285 29.3511C121.778 29.3511 122.221 29.4456 122.598 29.6328C122.974 29.82 123.268 30.0786 123.478 30.4084C123.688 30.7383 123.791 31.1235 123.791 31.5621C123.791 32.0007 123.686 32.3805 123.478 32.7122C123.268 33.0438 122.976 33.3024 122.598 33.4878C122.221 33.6733 121.785 33.7642 121.285 33.7642ZM121.294 33.1954C121.662 33.1954 121.982 33.1276 122.251 32.9939C122.52 32.8584 122.728 32.6694 122.876 32.4251C123.024 32.1808 123.097 31.8902 123.097 31.5567C123.097 31.2233 123.024 30.9398 122.876 30.6955C122.728 30.4512 122.52 30.2604 122.251 30.1267C121.982 29.9912 121.662 29.9252 121.294 29.9252C120.925 29.9252 120.612 29.993 120.34 30.1267C120.067 30.2622 119.859 30.4512 119.711 30.6955C119.564 30.9398 119.491 31.2269 119.491 31.5567C119.491 31.8866 119.564 32.1808 119.711 32.4251C119.859 32.6694 120.067 32.8602 120.34 32.9939C120.612 33.1294 120.929 33.1954 121.294 33.1954Z" fill="#FFFEFA"/>
<path d="M126.881 33.7645C126.397 33.7645 125.969 33.6718 125.597 33.4828C125.225 33.2938 124.933 33.037 124.722 32.7071C124.51 32.3773 124.403 31.9939 124.403 31.5535C124.403 31.1131 124.503 30.7368 124.702 30.407C124.901 30.0771 125.177 29.8186 125.528 29.6313C125.879 29.4441 126.286 29.3496 126.751 29.3496C127.215 29.3496 127.6 29.4495 127.936 29.6492C128.273 29.8489 128.534 30.1306 128.721 30.4926C128.908 30.8545 129.002 31.2753 129.002 31.755H124.919V31.2076H128.719L128.315 31.4626C128.301 31.1434 128.226 30.8688 128.091 30.6388C127.956 30.4088 127.774 30.2322 127.545 30.1074C127.315 29.9826 127.046 29.9202 126.736 29.9202C126.407 29.9202 126.121 29.9862 125.877 30.1181C125.633 30.2501 125.443 30.4373 125.309 30.6762C125.174 30.9151 125.108 31.1987 125.108 31.5232C125.108 31.8477 125.184 32.158 125.336 32.4076C125.487 32.6572 125.704 32.8516 125.982 32.9889C126.261 33.1262 126.591 33.1957 126.97 33.1957C127.319 33.1957 127.658 33.1369 127.991 33.0192C128.322 32.9015 128.621 32.7428 128.885 32.5431V33.0834C128.625 33.2938 128.315 33.4596 127.954 33.5808C127.593 33.7039 127.235 33.7645 126.881 33.7645Z" fill="#FFFEFA"/>
<path d="M131.606 33.7641C131.222 33.7641 130.896 33.6856 130.631 33.5287C130.364 33.3718 130.159 33.1436 130.017 32.8476C129.874 32.5498 129.803 32.1896 129.803 31.7653V29.4508H130.483V31.6529C130.483 32.1522 130.597 32.532 130.823 32.7923C131.049 33.0526 131.378 33.181 131.807 33.181C132.112 33.181 132.375 33.1133 132.599 32.9742C132.824 32.8351 132.998 32.6425 133.123 32.3929C133.247 32.1433 133.31 31.8526 133.31 31.5246L133.578 31.6743C133.548 32.0987 133.445 32.4678 133.269 32.7834C133.092 33.099 132.861 33.3397 132.576 33.5109C132.291 33.6803 131.968 33.7659 131.604 33.7659L131.606 33.7641ZM133.543 33.666L133.311 32.2342V29.4473H133.991V32.3394L134.23 33.666H133.541H133.543Z" fill="#FFFEFA"/>
<path d="M134.965 29.4491H135.645L135.883 30.8881V33.6679H135.203V30.7615L134.965 29.4509V29.4491ZM138.128 29.4331V30.0554C138.033 30.0251 137.921 30.0037 137.795 29.9876C137.669 29.9734 137.544 29.9645 137.425 29.9645C137.126 29.9645 136.861 30.0322 136.627 30.1659C136.396 30.3015 136.213 30.4976 136.081 30.7544C135.949 31.0111 135.883 31.3142 135.883 31.6655L135.689 31.3963C135.7 31.1021 135.748 30.8292 135.835 30.5796C135.923 30.33 136.045 30.1142 136.202 29.9324C136.359 29.7505 136.547 29.6078 136.766 29.5044C136.985 29.4028 137.234 29.3511 137.514 29.3511C137.624 29.3511 137.734 29.3582 137.847 29.3743C137.959 29.3885 138.053 29.4099 138.128 29.4349V29.4331Z" fill="#FFFEFA"/>
<path d="M144.881 31.5623C144.77 32.0028 144.603 32.3861 144.375 32.716C144.147 33.0459 143.873 33.3026 143.553 33.4881C143.231 33.6735 142.876 33.7644 142.487 33.7644C142.072 33.7644 141.707 33.6717 141.387 33.4827C141.068 33.2955 140.817 33.0369 140.636 32.7071C140.454 32.3772 140.363 31.9956 140.363 31.5606C140.363 31.1255 140.454 30.7368 140.636 30.4069C140.817 30.077 141.068 29.8185 141.387 29.6313C141.705 29.444 142.072 29.3495 142.487 29.3495C142.876 29.3495 143.231 29.4423 143.553 29.6259C143.875 29.8114 144.149 30.0681 144.379 30.398C144.608 30.7279 144.776 31.1148 144.881 31.5588V31.5623ZM141.068 31.5623C141.068 31.8815 141.134 32.165 141.266 32.4093C141.397 32.6536 141.579 32.8444 141.809 32.9817C142.038 33.119 142.302 33.1885 142.601 33.1885C142.9 33.1885 143.175 33.1207 143.426 32.9817C143.677 32.8444 143.902 32.6536 144.099 32.4093C144.297 32.165 144.457 31.8815 144.582 31.5623C144.457 31.2378 144.297 30.9525 144.099 30.7082C143.902 30.464 143.677 30.2732 143.426 30.1359C143.174 29.9986 142.9 29.929 142.601 29.929C142.302 29.929 142.036 29.9986 141.809 30.1359C141.579 30.2732 141.399 30.464 141.266 30.7082C141.134 30.9525 141.068 31.2378 141.068 31.5623ZM144.619 33.6664L144.469 32.0563L144.671 31.5623L144.484 31.031L144.776 27.8999H145.472L145.121 31.5338L145.315 33.6699H144.619V33.6664Z" fill="#FFFEFA"/>
<path d="M148.09 33.7641C147.705 33.7641 147.38 33.6856 147.114 33.5287C146.847 33.3718 146.643 33.1436 146.5 32.8476C146.358 32.5498 146.287 32.1896 146.287 31.7653V29.4508H146.967V31.6529C146.967 32.1522 147.081 32.532 147.307 32.7923C147.533 33.0526 147.862 33.181 148.291 33.181C148.595 33.181 148.859 33.1133 149.083 32.9742C149.307 32.8351 149.482 32.6425 149.606 32.3929C149.731 32.1433 149.793 31.8526 149.793 31.5246L150.062 31.6743C150.032 32.0987 149.928 32.4678 149.752 32.7834C149.576 33.099 149.345 33.3397 149.06 33.5109C148.775 33.6803 148.451 33.7659 148.088 33.7659L148.09 33.7641ZM150.026 33.666L149.795 32.2342V29.4473H150.475V32.3394L150.713 33.666H150.024H150.026Z" fill="#FFFEFA"/>
<path d="M157.977 31.5623C157.867 32.0028 157.699 32.3861 157.472 32.716C157.244 33.0459 156.97 33.3026 156.649 33.4881C156.327 33.6735 155.973 33.7644 155.583 33.7644C155.168 33.7644 154.804 33.6717 154.483 33.4827C154.165 33.2955 153.914 33.0369 153.732 32.7071C153.55 32.3772 153.46 31.9956 153.46 31.5606C153.46 31.1255 153.55 30.7368 153.732 30.4069C153.914 30.077 154.165 29.8185 154.483 29.6313C154.802 29.444 155.168 29.3495 155.583 29.3495C155.973 29.3495 156.327 29.4423 156.649 29.6259C156.971 29.8114 157.246 30.0681 157.475 30.398C157.705 30.7279 157.872 31.1148 157.977 31.5588V31.5623ZM154.163 31.5623C154.163 31.8815 154.229 32.165 154.36 32.4093C154.492 32.6536 154.674 32.8444 154.903 32.9817C155.133 33.119 155.396 33.1885 155.695 33.1885C155.994 33.1885 156.27 33.1207 156.521 32.9817C156.772 32.8444 156.996 32.6536 157.194 32.4093C157.391 32.165 157.552 31.8815 157.676 31.5623C157.552 31.2378 157.391 30.9525 157.194 30.7082C156.996 30.464 156.772 30.2732 156.521 30.1359C156.268 29.9986 155.994 29.929 155.695 29.929C155.396 29.929 155.131 29.9986 154.903 30.1359C154.674 30.2732 154.494 30.464 154.36 30.7082C154.229 30.9525 154.163 31.2378 154.163 31.5623ZM157.715 33.6664L157.566 32.0563L157.767 31.5623L157.58 31.031L157.872 27.8999H158.568L158.217 31.5338L158.411 33.6699H157.715V33.6664Z" fill="#FFFEFA"/>
<path d="M159.778 28.8128C159.634 28.8128 159.515 28.7682 159.419 28.6808C159.323 28.5935 159.276 28.4847 159.276 28.3545C159.276 28.2244 159.324 28.1085 159.419 28.0211C159.513 27.9337 159.632 27.8892 159.778 27.8892C159.924 27.8892 160.051 27.9337 160.145 28.0211C160.239 28.1085 160.287 28.219 160.287 28.3545C160.287 28.4901 160.239 28.5935 160.145 28.6808C160.051 28.7682 159.928 28.8128 159.778 28.8128ZM159.442 29.4333L159.778 29.4939L160.122 29.4333V33.6663H159.442V29.4333Z" fill="#FFFEFA"/>
<path d="M163.025 33.3972C162.646 33.3972 162.304 33.3134 161.996 33.1458C161.69 32.9782 161.446 32.7428 161.266 32.4379C161.086 32.133 160.997 31.7782 160.997 31.3734C160.997 30.9686 161.086 30.6156 161.266 30.3125C161.446 30.0111 161.688 29.774 161.996 29.6046C162.302 29.4352 162.646 29.3496 163.025 29.3496C163.31 29.3496 163.573 29.3942 163.817 29.4816C164.061 29.5689 164.283 29.6866 164.482 29.8328C164.682 29.9808 164.851 30.1431 164.991 30.3196C165.13 30.4979 165.239 30.678 165.317 30.8634C165.394 31.0489 165.433 31.2201 165.433 31.3805C165.433 31.5802 165.374 31.7978 165.257 32.0331C165.139 32.2685 164.972 32.4896 164.755 32.6964C164.538 32.9033 164.283 33.0727 163.991 33.2028C163.699 33.333 163.377 33.3972 163.023 33.3972H163.025ZM165.164 32.6483V31.8834L165.194 31.771V31.0738L165.164 30.9241V29.4477H165.844V32.5413C165.844 33.0959 165.734 33.5559 165.515 33.9196C165.296 34.2834 164.995 34.5544 164.614 34.7327C164.233 34.9092 163.803 34.9984 163.324 34.9984C162.955 34.9984 162.615 34.9467 162.307 34.845C161.998 34.7434 161.702 34.5865 161.417 34.3761V33.777C161.717 34.0159 162.024 34.1853 162.341 34.2834C162.658 34.3814 162.971 34.4296 163.279 34.4296C163.893 34.4296 164.36 34.2709 164.682 33.9535C165.004 33.6361 165.164 33.2011 165.164 32.6465V32.6483ZM163.204 32.8498C163.594 32.8498 163.954 32.7339 164.285 32.5021C164.616 32.2703 164.919 31.8941 165.194 31.3752C164.926 30.8456 164.623 30.4676 164.29 30.2394C163.957 30.0111 163.594 29.8988 163.206 29.8988C162.882 29.8988 162.608 29.963 162.384 30.0896C162.16 30.2162 161.989 30.3909 161.871 30.6102C161.754 30.8296 161.695 31.0845 161.695 31.3752C161.695 31.6658 161.754 31.9137 161.871 32.1366C161.989 32.3594 162.16 32.5342 162.384 32.6608C162.608 32.7874 162.882 32.8516 163.206 32.8516L163.204 32.8498Z" fill="#FFFEFA"/>
<path d="M167.28 28.8128C167.136 28.8128 167.017 28.7682 166.921 28.6808C166.825 28.5935 166.779 28.4847 166.779 28.3545C166.779 28.2244 166.827 28.1085 166.921 28.0211C167.015 27.9337 167.135 27.8892 167.28 27.8892C167.426 27.8892 167.553 27.9337 167.647 28.0211C167.741 28.1085 167.79 28.219 167.79 28.3545C167.79 28.4901 167.741 28.5935 167.647 28.6808C167.553 28.7682 167.43 28.8128 167.28 28.8128ZM166.944 29.4333L167.28 29.4939L167.624 29.4333V33.6663H166.944V29.4333Z" fill="#FFFEFA"/>
<path d="M168.215 30.004V29.6742L169.142 29.5012L169.411 28.3618H169.822V29.4477H171.88V30.0022H169.822V32.1455C169.822 32.5253 169.906 32.791 170.073 32.9443C170.24 33.0959 170.5 33.1726 170.854 33.1726C171.079 33.1726 171.278 33.1458 171.452 33.0905C171.627 33.0353 171.794 32.955 171.954 32.8516V33.4578C171.835 33.5327 171.659 33.6023 171.428 33.6683C171.196 33.7324 170.958 33.7663 170.714 33.7663C170.329 33.7663 170.023 33.7021 169.794 33.572C169.564 33.4418 169.398 33.2617 169.297 33.0317C169.194 32.8017 169.144 32.5449 169.144 32.2596V30.004H168.217H168.215Z" fill="#FFFEFA"/>
<path d="M176.817 31.5624C176.707 32.0028 176.539 32.3862 176.312 32.7161C176.084 33.0459 175.81 33.3027 175.489 33.4881C175.167 33.6736 174.813 33.7645 174.423 33.7645C174.008 33.7645 173.643 33.6718 173.323 33.4828C173.005 33.2956 172.754 33.037 172.572 32.7071C172.39 32.3773 172.3 31.9957 172.3 31.5606C172.3 31.1256 172.39 30.7368 172.572 30.407C172.754 30.0771 173.005 29.8186 173.323 29.6313C173.642 29.4441 174.008 29.3496 174.423 29.3496C174.813 29.3496 175.167 29.4423 175.489 29.626C175.811 29.8114 176.085 30.0682 176.315 30.3981C176.545 30.7279 176.712 31.1149 176.817 31.5588V31.5624ZM173.003 31.5624C173.003 31.8816 173.069 32.1651 173.2 32.4094C173.332 32.6536 173.514 32.8444 173.743 32.9817C173.973 33.119 174.236 33.1886 174.535 33.1886C174.834 33.1886 175.11 33.1208 175.361 32.9817C175.612 32.8444 175.836 32.6536 176.034 32.4094C176.231 32.1651 176.392 31.8816 176.516 31.5624C176.392 31.2379 176.231 30.9526 176.034 30.7083C175.836 30.464 175.612 30.2732 175.361 30.1359C175.108 29.9986 174.834 29.9291 174.535 29.9291C174.236 29.9291 173.971 29.9986 173.743 30.1359C173.514 30.2732 173.334 30.464 173.2 30.7083C173.069 30.9526 173.003 31.2379 173.003 31.5624ZM176.546 33.6664L176.397 32.0706L176.584 31.5606L176.397 31.0435L176.546 29.4477H177.25L177.048 31.5606L177.25 33.6664H176.546Z" fill="#FFFEFA"/>
<path d="M178.275 27.8979H178.955V33.6662H178.275V27.8979Z" fill="#FFFEFA"/>
<path d="M217.982 20.3486L217.973 12.8526C217.973 12.4567 217.509 12.2463 217.212 12.5049C215.336 14.131 213.46 15.7572 211.584 17.3834C211.584 17.3834 211.584 17.3834 211.585 17.3834C210.809 17.945 210.177 18.7849 209.969 20.115C209.821 21.0511 209.999 22.0194 210.512 22.8164C212.009 25.1451 215.136 25.3252 216.898 23.4494C217.544 22.7611 217.902 21.907 217.979 21.0333C217.979 21.0333 217.98 21.0333 217.982 21.0333C217.982 21.0244 217.982 21.0155 217.982 21.0066C218 20.7872 217.998 20.5661 217.982 20.3468V20.3486Z" fill="#BE33FF"/>
<path d="M196.321 0.0571289C196.006 0.0571289 195.748 0.299627 195.721 0.613449C195.638 1.57096 195.497 2.52491 195.292 3.46102C194.961 4.97485 194.605 5.85034 194.345 6.48868C194.187 6.87918 194.146 6.98616 194.112 7.15556C194.091 7.26254 194.078 7.32495 194.1 7.41767C194.162 7.68156 194.409 7.85987 194.68 7.85987H202.068C202.602 7.85987 203.118 7.6673 203.524 7.31781L210.71 1.11628C211.131 0.750746 210.875 0.0571289 210.316 0.0571289H196.317H196.321Z" fill="#51ED9B"/>
<path d="M217.868 0.310326C217.715 0.114187 217.455 0.0678274 217.297 0.0571289C216.911 0.0571289 216.524 0.0571289 216.138 0.0571289C216.079 0.0571289 216.014 0.0606951 215.946 0.0731766C215.592 0.133801 215.351 0.354903 215.236 0.481501C208.294 6.47977 201.351 12.478 194.409 18.4763C194.109 18.7366 194.014 19.1628 194.18 19.5248C194.42 20.0436 194.655 20.6392 194.854 21.3096C195.141 22.2707 195.289 23.1551 195.36 23.9183C195.403 24.3765 195.789 24.726 196.248 24.726H198.578C198.857 24.726 199.13 24.6261 199.341 24.4425C205.397 19.2537 211.452 14.065 217.507 8.87622C217.813 8.61411 217.989 8.23075 217.989 7.82778C217.989 5.44559 217.989 3.06161 217.991 0.679422C217.991 0.588486 217.968 0.44049 217.866 0.312109L217.868 0.310326Z" fill="#EA1958"/>
<path d="M193.236 13.917C193.274 11.3654 192.432 9.70892 191.877 8.61233C191.63 8.12495 191.523 7.79746 191.556 7.62985C191.59 7.46403 191.629 7.35704 191.786 6.97011C192.044 6.33712 192.396 5.46876 192.726 3.96563C192.961 2.89222 193.115 1.79563 193.19 0.697253C193.213 0.351336 192.945 0.0571289 192.597 0.0571289H185.973C185.67 0.0571289 185.414 0.285363 185.384 0.588486C185.328 1.16264 185.239 1.73322 185.117 2.29489C184.93 3.14542 184.764 3.55374 184.572 4.02804C184.362 4.54513 184.1 5.19061 183.919 6.09819C183.339 9.00282 184.298 10.8947 184.933 12.1464C185.332 12.9327 185.457 13.2091 185.45 13.8046C185.441 14.361 185.325 14.5821 184.98 15.2382C184.406 16.3259 183.447 18.1464 183.905 20.9566C184.065 21.939 184.33 22.6523 184.544 23.2246C184.741 23.7524 184.91 24.2089 185.065 25.0933C185.177 25.7423 185.243 26.4074 185.261 27.0725C185.263 27.1563 185.266 27.3418 185.264 27.57C185.259 28.0051 185.231 28.4508 185.181 28.9037C185.142 29.2568 185.414 29.5653 185.768 29.5653H192.398C192.71 29.5653 192.966 29.3245 192.991 29.0125C193.026 28.5596 193.048 28.1103 193.053 27.6663C193.057 27.3275 193.053 27.0458 193.048 26.8746C193.023 25.8297 192.918 24.7795 192.74 23.7506C192.462 22.1548 192.104 21.1955 191.843 20.493C191.684 20.0704 191.629 19.9135 191.594 19.6977C191.57 19.5515 191.574 19.4873 191.572 19.4873C191.597 19.391 191.756 19.0932 191.87 18.8757C192.402 17.8665 193.204 16.3437 193.238 13.9134L193.236 13.917Z" fill="#F2F128"/>
<path d="M196.115 27.1973C195.837 27.1973 195.611 27.4201 195.609 27.6983C195.6 28.3759 195.559 29.0909 195.485 29.8237L195.337 31.2912C195.289 31.7673 194.888 32.1293 194.411 32.1293H185.72C185.321 32.1293 184.997 32.4538 184.997 32.8532V34.3028C184.997 34.688 185.309 35 185.693 35H217.163C217.624 35 217.998 34.6256 217.998 34.1637V28.0139C217.998 27.5628 217.633 27.1973 217.183 27.1973H196.116H196.115Z" fill="#61F3FF"/>
</g>
<defs>
<clipPath id="clip0_265_323">
<rect width="218" height="35" fill="white"/>
</clipPath>
</defs>
</svg>
