<svg width="180" height="31" viewBox="0 0 180 31" fill="none" xmlns="http://www.w3.org/2000/svg">
<g clip-path="url(#clip0_265_455)">
<mask id="mask0_265_455" style="mask-type:luminance" maskUnits="userSpaceOnUse" x="0" y="0" width="24" height="24">
<path d="M24 0H0V24H24V0Z" fill="white"/>
</mask>
<g mask="url(#mask0_265_455)">
<path d="M12 0C5.37264 0 0 5.37264 0 12C0 17.6275 3.87456 22.3498 9.10128 23.6467V15.6672H6.62688V12H9.10128V10.4198C9.10128 6.33552 10.9498 4.4424 14.9597 4.4424C15.72 4.4424 17.0318 4.59168 17.5685 4.74048V8.06448C17.2853 8.03472 16.7933 8.01984 16.1822 8.01984C14.2147 8.01984 13.4544 8.76528 13.4544 10.703V12H17.3741L16.7006 15.6672H13.4544V23.9122C19.3963 23.1946 24.0005 18.1354 24.0005 12C24 5.37264 18.6274 0 12 0Z" fill="#FAF7F2"/>
</g>
</g>
<g clip-path="url(#clip1_265_455)">
<mask id="mask1_265_455" style="mask-type:luminance" maskUnits="userSpaceOnUse" x="39" y="0" width="24" height="24">
<path d="M63 0H39V24H63V0Z" fill="white"/>
</mask>
<g mask="url(#mask1_265_455)">
<path d="M51 2.16094C54.2063 2.16094 54.5859 2.175 55.8469 2.23125C57.0188 2.28281 57.6516 2.47969 58.0734 2.64375C58.6313 2.85938 59.0344 3.12188 59.4516 3.53906C59.8734 3.96094 60.1313 4.35938 60.3469 4.91719C60.5109 5.33906 60.7078 5.97656 60.7594 7.14375C60.8156 8.40937 60.8297 8.78906 60.8297 11.9906C60.8297 15.1969 60.8156 15.5766 60.7594 16.8375C60.7078 18.0094 60.5109 18.6422 60.3469 19.0641C60.1313 19.6219 59.8687 20.025 59.4516 20.4422C59.0297 20.8641 58.6313 21.1219 58.0734 21.3375C57.6516 21.5016 57.0141 21.6984 55.8469 21.75C54.5813 21.8062 54.2016 21.8203 51 21.8203C47.7937 21.8203 47.4141 21.8062 46.1531 21.75C44.9812 21.6984 44.3484 21.5016 43.9266 21.3375C43.3688 21.1219 42.9656 20.8594 42.5484 20.4422C42.1266 20.0203 41.8688 19.6219 41.6531 19.0641C41.4891 18.6422 41.2922 18.0047 41.2406 16.8375C41.1844 15.5719 41.1703 15.1922 41.1703 11.9906C41.1703 8.78438 41.1844 8.40469 41.2406 7.14375C41.2922 5.97187 41.4891 5.33906 41.6531 4.91719C41.8688 4.35938 42.1312 3.95625 42.5484 3.53906C42.9703 3.11719 43.3688 2.85938 43.9266 2.64375C44.3484 2.47969 44.9859 2.28281 46.1531 2.23125C47.4141 2.175 47.7937 2.16094 51 2.16094ZM51 0C47.7422 0 47.3344 0.0140625 46.0547 0.0703125C44.7797 0.126563 43.9031 0.332812 43.1438 0.628125C42.3516 0.9375 41.6813 1.34531 41.0156 2.01562C40.3453 2.68125 39.9375 3.35156 39.6281 4.13906C39.3328 4.90313 39.1266 5.775 39.0703 7.05C39.0141 8.33437 39 8.74219 39 12C39 15.2578 39.0141 15.6656 39.0703 16.9453C39.1266 18.2203 39.3328 19.0969 39.6281 19.8563C39.9375 20.6484 40.3453 21.3188 41.0156 21.9844C41.6813 22.65 42.3516 23.0625 43.1391 23.3672C43.9031 23.6625 44.775 23.8687 46.05 23.925C47.3297 23.9812 47.7375 23.9953 50.9953 23.9953C54.2531 23.9953 54.6609 23.9812 55.9406 23.925C57.2156 23.8687 58.0922 23.6625 58.8516 23.3672C59.6391 23.0625 60.3094 22.65 60.975 21.9844C61.6406 21.3188 62.0531 20.6484 62.3578 19.8609C62.6531 19.0969 62.8594 18.225 62.9156 16.95C62.9719 15.6703 62.9859 15.2625 62.9859 12.0047C62.9859 8.74688 62.9719 8.33906 62.9156 7.05938C62.8594 5.78438 62.6531 4.90781 62.3578 4.14844C62.0625 3.35156 61.6547 2.68125 60.9844 2.01562C60.3188 1.35 59.6484 0.9375 58.8609 0.632812C58.0969 0.3375 57.225 0.13125 55.95 0.075C54.6656 0.0140625 54.2578 0 51 0Z" fill="#FAF7F2"/>
<path d="M51 5.83594C47.5969 5.83594 44.8359 8.59688 44.8359 12C44.8359 15.4031 47.5969 18.1641 51 18.1641C54.4031 18.1641 57.1641 15.4031 57.1641 12C57.1641 8.59688 54.4031 5.83594 51 5.83594ZM51 15.9984C48.7922 15.9984 47.0016 14.2078 47.0016 12C47.0016 9.79219 48.7922 8.00156 51 8.00156C53.2078 8.00156 54.9984 9.79219 54.9984 12C54.9984 14.2078 53.2078 15.9984 51 15.9984Z" fill="#FAF7F2"/>
<path d="M58.8469 5.59238C58.8469 6.38926 58.2 7.03145 57.4078 7.03145C56.6109 7.03145 55.9688 6.38457 55.9688 5.59238C55.9688 4.79551 56.6156 4.15332 57.4078 4.15332C58.2 4.15332 58.8469 4.8002 58.8469 5.59238Z" fill="#FAF7F2"/>
</g>
</g>
<g clip-path="url(#clip2_265_455)">
<mask id="mask2_265_455" style="mask-type:luminance" maskUnits="userSpaceOnUse" x="78" y="0" width="24" height="24">
<path d="M102 0H78V24H102V0Z" fill="white"/>
</mask>
<g mask="url(#mask2_265_455)">
<path d="M100.223 0H79.7719C78.7922 0 78 0.773438 78 1.72969V22.2656C78 23.2219 78.7922 24 79.7719 24H100.223C101.203 24 102 23.2219 102 22.2703V1.72969C102 0.773438 101.203 0 100.223 0ZM85.1203 20.4516H81.5578V8.99531H85.1203V20.4516ZM83.3391 7.43438C82.1953 7.43438 81.2719 6.51094 81.2719 5.37187C81.2719 4.23281 82.1953 3.30937 83.3391 3.30937C84.4781 3.30937 85.4016 4.23281 85.4016 5.37187C85.4016 6.50625 84.4781 7.43438 83.3391 7.43438ZM98.4516 20.4516H94.8937V14.8828C94.8937 13.5562 94.8703 11.8453 93.0422 11.8453C91.1906 11.8453 90.9094 13.2937 90.9094 14.7891V20.4516H87.3562V8.99531H90.7687V10.5609H90.8156C91.2891 9.66094 92.4516 8.70938 94.1813 8.70938C97.7859 8.70938 98.4516 11.0813 98.4516 14.1656V20.4516Z" fill="#FAF7F2"/>
</g>
</g>
<path d="M134.073 0H130.028V16.3478C130.028 18.2957 128.472 19.8957 126.536 19.8957C124.6 19.8957 123.045 18.2957 123.045 16.3478C123.045 14.4348 124.566 12.8695 126.433 12.8V8.69567C122.319 8.7652 119 12.1391 119 16.3478C119 20.5913 122.388 24 126.571 24C130.754 24 134.142 20.5565 134.142 16.3478V7.9652C135.663 9.07827 137.529 9.73913 139.5 9.77393V5.66957C136.458 5.56522 134.073 3.06087 134.073 0Z" fill="#FAF7F2"/>
<path d="M179.761 7.19981C179.761 7.19981 179.527 5.54512 178.805 4.81856C177.891 3.86231 176.869 3.85762 176.4 3.80137C173.044 3.55762 168.005 3.55762 168.005 3.55762H167.995C167.995 3.55762 162.956 3.55762 159.6 3.80137C159.131 3.85762 158.109 3.86231 157.195 4.81856C156.473 5.54512 156.244 7.19981 156.244 7.19981C156.244 7.19981 156 9.14512 156 11.0858V12.9045C156 14.8452 156.239 16.7905 156.239 16.7905C156.239 16.7905 156.473 18.4452 157.191 19.1717C158.105 20.128 159.305 20.0952 159.839 20.1983C161.761 20.3811 168 20.4373 168 20.4373C168 20.4373 173.044 20.428 176.4 20.1889C176.869 20.1327 177.891 20.128 178.805 19.1717C179.527 18.4452 179.761 16.7905 179.761 16.7905C179.761 16.7905 180 14.8498 180 12.9045V11.0858C180 9.14512 179.761 7.19981 179.761 7.19981ZM165.52 15.1123V8.367L172.003 11.7514L165.52 15.1123Z" fill="#FAF7F2"/>
<defs>
<clipPath id="clip0_265_455">
<rect width="24" height="24" fill="white"/>
</clipPath>
<clipPath id="clip1_265_455">
<rect width="24" height="24" fill="white" transform="translate(39)"/>
</clipPath>
<clipPath id="clip2_265_455">
<rect width="24" height="24" fill="white" transform="translate(78)"/>
</clipPath>
</defs>
</svg>
